<svg width="1415" height="460" viewBox="0 0 1415 460" fill="none" xmlns="http://www.w3.org/2000/svg">
<rect x="0.5" y="6" width="435" height="452" rx="90" fill="#FFBB00"/>
<path fill-rule="evenodd" clip-rule="evenodd" d="M316.267 76.2374C330.074 71.9893 345.536 71.0429 357.74 77.1449C360.603 78.5762 362.924 80.8974 364.355 83.76C370.457 95.9639 369.511 111.426 365.263 125.233C360.848 139.581 352.179 154.615 339.397 167.397L293.35 213.444L318.239 326.829L318.296 327.099C321.101 341.124 314.826 352.417 305.271 359.583C304.232 360.362 303.095 361.001 301.889 361.484L294.494 364.442C282.195 369.362 267.174 367.462 257.938 355.146C257.76 354.91 257.59 354.668 257.428 354.422L213.844 288.423L188.417 305.375V341.833C188.417 345.756 186.858 349.519 184.084 352.293L169.293 367.084C166.159 370.218 161.786 371.781 157.376 371.345C152.966 370.908 148.984 368.517 146.526 364.83L118.584 322.916L76.6701 294.974C72.9829 292.516 70.592 288.534 70.1554 284.124C69.7187 279.714 71.2822 275.341 74.4158 272.207L89.2074 257.416C91.9814 254.642 95.7437 253.083 99.6667 253.083H136.125L153.077 227.656L87.0781 184.072C86.8318 183.91 86.5904 183.74 86.3542 183.563C74.0385 174.326 72.1385 159.305 77.058 147.007C77.351 146.274 77.7021 145.566 78.108 144.89L82.2987 137.905C88.5492 126.026 101.129 120.55 114.401 123.204L114.672 123.261L228.056 148.15L274.103 102.103C286.885 89.3214 301.919 80.6523 316.267 76.2374ZM324.967 104.513C315.279 107.494 304.428 113.616 295.022 123.022L243.251 174.793C239.685 178.359 234.547 179.862 229.62 178.781L108.504 152.195C108.404 152.176 108.314 152.162 108.234 152.152C108.131 152.342 108.024 152.529 107.913 152.714L104.248 158.823C104.112 159.339 104.099 159.685 104.107 159.866L181.776 211.157C185.059 213.325 187.343 216.711 188.123 220.567C188.903 224.424 188.115 228.432 185.932 231.705L156.349 276.08C153.606 280.195 148.987 282.667 144.042 282.667H111.541L137.455 299.943C139.08 301.026 140.474 302.42 141.557 304.045L158.833 329.959V297.458C158.833 292.513 161.305 287.894 165.42 285.151L209.795 255.568C213.069 253.385 217.077 252.597 220.933 253.377C224.789 254.157 228.175 256.441 230.343 259.724L281.634 337.393C281.899 337.405 282.516 337.371 283.507 336.975L288.686 334.903C289.138 334.429 289.283 334.13 289.316 334.056C289.343 333.992 289.36 333.938 289.37 333.838C289.38 333.737 289.393 333.472 289.306 332.996L262.719 211.88C261.638 206.953 263.141 201.815 266.707 198.249L318.478 146.478C327.884 137.073 334.007 126.221 336.988 116.533C338.806 110.623 339.258 105.882 339.066 102.434C335.618 102.242 330.877 102.694 324.967 104.513Z" fill="#FBF9F5"/>
<path d="M596.58 68.84C604.02 70.52 609.9 74.24 614.22 80C618.66 85.64 620.88 92.12 620.88 99.44C620.88 110.24 617.16 118.7 609.72 124.82C602.28 130.94 591.84 134 578.4 134H515.58V7.09999H576.42C589.38 7.09999 599.52 9.97999 606.84 15.74C614.28 21.5 618 29.6 618 40.04C618 47.48 616.02 53.72 612.06 58.76C608.22 63.68 603.06 67.04 596.58 68.84ZM550.86 57.5H568.68C577.56 57.5 582 53.84 582 46.52C582 38.96 577.56 35.18 568.68 35.18H550.86V57.5ZM571.38 105.56C580.26 105.56 584.7 101.84 584.7 94.4C584.7 90.56 583.5 87.62 581.1 85.58C578.82 83.54 575.52 82.52 571.2 82.52H550.86V105.56H571.38ZM671.622 0.799998V134H636.342V0.799998H671.622ZM685.953 83.42C685.953 72.98 687.813 63.86 691.533 56.06C695.373 48.26 700.533 42.26 707.013 38.06C713.613 33.86 720.933 31.76 728.973 31.76C735.933 31.76 741.933 33.14 746.973 35.9C752.013 38.66 755.913 42.38 758.673 47.06V33.02H793.953V134H758.673V119.96C755.913 124.64 751.953 128.36 746.793 131.12C741.753 133.88 735.813 135.26 728.973 135.26C720.933 135.26 713.613 133.16 707.013 128.96C700.533 124.76 695.373 118.76 691.533 110.96C687.813 103.04 685.953 93.86 685.953 83.42ZM758.673 83.42C758.673 76.94 756.873 71.84 753.273 68.12C749.793 64.4 745.473 62.54 740.313 62.54C735.033 62.54 730.653 64.4 727.173 68.12C723.693 71.72 721.953 76.82 721.953 83.42C721.953 89.9 723.693 95.06 727.173 98.9C730.653 102.62 735.033 104.48 740.313 104.48C745.473 104.48 749.793 102.62 753.273 98.9C756.873 95.18 758.673 90.02 758.673 83.42ZM808.297 83.42C808.297 72.98 810.157 63.86 813.877 56.06C817.717 48.26 822.937 42.26 829.537 38.06C836.137 33.86 843.457 31.76 851.497 31.76C857.977 31.76 863.737 33.14 868.777 35.9C873.937 38.54 877.957 42.2 880.837 46.88V0.799998H916.297V134H880.837V119.96C878.077 124.64 874.177 128.36 869.137 131.12C864.097 133.88 858.157 135.26 851.317 135.26C843.277 135.26 835.957 133.16 829.357 128.96C822.877 124.76 817.717 118.76 813.877 110.96C810.157 103.04 808.297 93.86 808.297 83.42ZM881.017 83.42C881.017 76.94 879.217 71.84 875.617 68.12C872.137 64.4 867.817 62.54 862.657 62.54C857.377 62.54 852.997 64.4 849.517 68.12C846.037 71.72 844.297 76.82 844.297 83.42C844.297 89.9 846.037 95.06 849.517 98.9C852.997 102.62 857.377 104.48 862.657 104.48C867.817 104.48 872.137 102.62 875.617 98.9C879.217 95.18 881.017 90.02 881.017 83.42ZM1032.88 82.34C1032.88 85.1 1032.7 87.86 1032.34 90.62H965.56C965.92 96.14 967.42 100.28 970.06 103.04C972.82 105.68 976.3 107 980.5 107C986.38 107 990.58 104.36 993.1 99.08H1030.72C1029.16 106.04 1026.1 112.28 1021.54 117.8C1017.1 123.2 1011.46 127.46 1004.62 130.58C997.78 133.7 990.22 135.26 981.94 135.26C971.98 135.26 963.1 133.16 955.3 128.96C947.62 124.76 941.56 118.76 937.12 110.96C932.8 103.16 930.64 93.98 930.64 83.42C930.64 72.86 932.8 63.74 937.12 56.06C941.44 48.26 947.44 42.26 955.12 38.06C962.92 33.86 971.86 31.76 981.94 31.76C991.9 31.76 1000.72 33.8 1008.4 37.88C1016.08 41.96 1022.08 47.84 1026.4 55.52C1030.72 63.08 1032.88 72.02 1032.88 82.34ZM996.88 73.52C996.88 69.2 995.44 65.84 992.56 63.44C989.68 60.92 986.08 59.66 981.76 59.66C977.44 59.66 973.9 60.86 971.14 63.26C968.38 65.54 966.58 68.96 965.74 73.52H996.88ZM565.8 169.1C579.12 169.1 590.76 171.8 600.72 177.2C610.8 182.48 618.54 189.92 623.94 199.52C629.34 209.12 632.04 220.1 632.04 232.46C632.04 244.7 629.28 255.62 623.76 265.22C618.36 274.82 610.62 282.38 600.54 287.9C590.58 293.3 579 296 565.8 296H515.58V169.1H565.8ZM563.1 264.86C573.42 264.86 581.52 262.04 587.4 256.4C593.28 250.76 596.22 242.78 596.22 232.46C596.22 222.02 593.28 213.98 587.4 208.34C581.52 202.58 573.42 199.7 563.1 199.7H550.86V264.86H563.1ZM744.423 244.34C744.423 247.1 744.243 249.86 743.883 252.62H677.103C677.463 258.14 678.963 262.28 681.603 265.04C684.363 267.68 687.843 269 692.043 269C697.923 269 702.123 266.36 704.643 261.08H742.263C740.703 268.04 737.643 274.28 733.083 279.8C728.643 285.2 723.003 289.46 716.163 292.58C709.323 295.7 701.763 297.26 693.483 297.26C683.523 297.26 674.643 295.16 666.843 290.96C659.163 286.76 653.103 280.76 648.663 272.96C644.343 265.16 642.183 255.98 642.183 245.42C642.183 234.86 644.343 225.74 648.663 218.06C652.983 210.26 658.983 204.26 666.663 200.06C674.463 195.86 683.403 193.76 693.483 193.76C703.443 193.76 712.263 195.8 719.943 199.88C727.623 203.96 733.623 209.84 737.943 217.52C742.263 225.08 744.423 234.02 744.423 244.34ZM708.423 235.52C708.423 231.2 706.983 227.84 704.103 225.44C701.223 222.92 697.623 221.66 693.303 221.66C688.983 221.66 685.443 222.86 682.683 225.26C679.923 227.54 678.123 230.96 677.283 235.52H708.423ZM813.401 224.36H797.561V296H762.101V224.36H751.121V195.02H762.101V194.12C762.101 181.16 765.881 171.26 773.441 164.42C781.121 157.46 792.101 153.98 806.381 153.98C809.261 153.98 811.481 154.04 813.041 154.16V184.22C812.081 184.1 810.761 184.04 809.081 184.04C805.241 184.04 802.421 184.94 800.621 186.74C798.821 188.42 797.801 191.18 797.561 195.02H813.401V224.36ZM922.49 244.34C922.49 247.1 922.31 249.86 921.95 252.62H855.17C855.53 258.14 857.03 262.28 859.67 265.04C862.43 267.68 865.91 269 870.11 269C875.99 269 880.19 266.36 882.71 261.08H920.33C918.77 268.04 915.71 274.28 911.15 279.8C906.71 285.2 901.07 289.46 894.23 292.58C887.39 295.7 879.83 297.26 871.55 297.26C861.59 297.26 852.71 295.16 844.91 290.96C837.23 286.76 831.17 280.76 826.73 272.96C822.41 265.16 820.25 255.98 820.25 245.42C820.25 234.86 822.41 225.74 826.73 218.06C831.05 210.26 837.05 204.26 844.73 200.06C852.53 195.86 861.47 193.76 871.55 193.76C881.51 193.76 890.33 195.8 898.01 199.88C905.69 203.96 911.69 209.84 916.01 217.52C920.33 225.08 922.49 234.02 922.49 244.34ZM886.49 235.52C886.49 231.2 885.05 227.84 882.17 225.44C879.29 222.92 875.69 221.66 871.37 221.66C867.05 221.66 863.51 222.86 860.75 225.26C857.99 227.54 856.19 230.96 855.35 235.52H886.49ZM931.168 245.42C931.168 234.98 933.328 225.86 937.648 218.06C941.968 210.26 947.968 204.26 955.648 200.06C963.448 195.86 972.328 193.76 982.288 193.76C995.128 193.76 1005.93 197.3 1014.69 204.38C1023.45 211.34 1029.09 221.12 1031.61 233.72H994.168C992.008 227.12 987.808 223.82 981.568 223.82C977.128 223.82 973.588 225.68 970.948 229.4C968.428 233 967.168 238.34 967.168 245.42C967.168 252.5 968.428 257.9 970.948 261.62C973.588 265.34 977.128 267.2 981.568 267.2C987.928 267.2 992.128 263.9 994.168 257.3H1031.61C1029.09 269.78 1023.45 279.56 1014.69 286.64C1005.93 293.72 995.128 297.26 982.288 297.26C972.328 297.26 963.448 295.16 955.648 290.96C947.968 286.76 941.968 280.76 937.648 272.96C933.328 265.16 931.168 255.98 931.168 245.42ZM1105.84 265.94V296H1090.54C1064.74 296 1051.84 283.22 1051.84 257.66V224.36H1039.42V195.02H1051.84V170.54H1087.3V195.02H1105.66V224.36H1087.3V258.2C1087.3 260.96 1087.9 262.94 1089.1 264.14C1090.42 265.34 1092.58 265.94 1095.58 265.94H1105.84ZM565.8 331.1C579.12 331.1 590.76 333.8 600.72 339.2C610.8 344.48 618.54 351.92 623.94 361.52C629.34 371.12 632.04 382.1 632.04 394.46C632.04 406.7 629.28 417.62 623.76 427.22C618.36 436.82 610.62 444.38 600.54 449.9C590.58 455.3 579 458 565.8 458H515.58V331.1H565.8ZM563.1 426.86C573.42 426.86 581.52 424.04 587.4 418.4C593.28 412.76 596.22 404.78 596.22 394.46C596.22 384.02 593.28 375.98 587.4 370.34C581.52 364.58 573.42 361.7 563.1 361.7H550.86V426.86H563.1ZM744.423 406.34C744.423 409.1 744.243 411.86 743.883 414.62H677.103C677.463 420.14 678.963 424.28 681.603 427.04C684.363 429.68 687.843 431 692.043 431C697.923 431 702.123 428.36 704.643 423.08H742.263C740.703 430.04 737.643 436.28 733.083 441.8C728.643 447.2 723.003 451.46 716.163 454.58C709.323 457.7 701.763 459.26 693.483 459.26C683.523 459.26 674.643 457.16 666.843 452.96C659.163 448.76 653.103 442.76 648.663 434.96C644.343 427.16 642.183 417.98 642.183 407.42C642.183 396.86 644.343 387.74 648.663 380.06C652.983 372.26 658.983 366.26 666.663 362.06C674.463 357.86 683.403 355.76 693.483 355.76C703.443 355.76 712.263 357.8 719.943 361.88C727.623 365.96 733.623 371.84 737.943 379.52C742.263 387.08 744.423 396.02 744.423 406.34ZM708.423 397.52C708.423 393.2 706.983 389.84 704.103 387.44C701.223 384.92 697.623 383.66 693.303 383.66C688.983 383.66 685.443 384.86 682.683 387.26C679.923 389.54 678.123 392.96 677.283 397.52H708.423ZM818.441 427.94V458H803.141C777.341 458 764.441 445.22 764.441 419.66V386.36H752.021V357.02H764.441V332.54H799.901V357.02H818.261V386.36H799.901V420.2C799.901 422.96 800.501 424.94 801.701 426.14C803.021 427.34 805.181 427.94 808.181 427.94H818.441ZM931.103 406.34C931.103 409.1 930.923 411.86 930.563 414.62H863.783C864.143 420.14 865.643 424.28 868.283 427.04C871.043 429.68 874.523 431 878.723 431C884.603 431 888.803 428.36 891.323 423.08H928.943C927.383 430.04 924.323 436.28 919.763 441.8C915.323 447.2 909.683 451.46 902.843 454.58C896.003 457.7 888.443 459.26 880.163 459.26C870.203 459.26 861.323 457.16 853.523 452.96C845.843 448.76 839.783 442.76 835.343 434.96C831.023 427.16 828.863 417.98 828.863 407.42C828.863 396.86 831.023 387.74 835.343 380.06C839.663 372.26 845.663 366.26 853.343 362.06C861.143 357.86 870.083 355.76 880.163 355.76C890.123 355.76 898.943 357.8 906.623 361.88C914.303 365.96 920.303 371.84 924.623 379.52C928.943 387.08 931.103 396.02 931.103 406.34ZM895.103 397.52C895.103 393.2 893.663 389.84 890.783 387.44C887.903 384.92 884.303 383.66 879.983 383.66C875.663 383.66 872.123 384.86 869.363 387.26C866.603 389.54 864.803 392.96 863.963 397.52H895.103ZM939.781 407.42C939.781 396.98 941.941 387.86 946.261 380.06C950.581 372.26 956.581 366.26 964.261 362.06C972.061 357.86 980.941 355.76 990.901 355.76C1003.74 355.76 1014.54 359.3 1023.3 366.38C1032.06 373.34 1037.7 383.12 1040.22 395.72H1002.78C1000.62 389.12 996.421 385.82 990.181 385.82C985.741 385.82 982.201 387.68 979.561 391.4C977.041 395 975.781 400.34 975.781 407.42C975.781 414.5 977.041 419.9 979.561 423.62C982.201 427.34 985.741 429.2 990.181 429.2C996.541 429.2 1000.74 425.9 1002.78 419.3H1040.22C1037.7 431.78 1032.06 441.56 1023.3 448.64C1014.54 455.72 1003.74 459.26 990.901 459.26C980.941 459.26 972.061 457.16 964.261 452.96C956.581 448.76 950.581 442.76 946.261 434.96C941.941 427.16 939.781 417.98 939.781 407.42ZM1114.46 427.94V458H1099.16C1073.36 458 1060.46 445.22 1060.46 419.66V386.36H1048.04V357.02H1060.46V332.54H1095.92V357.02H1114.28V386.36H1095.92V420.2C1095.92 422.96 1096.52 424.94 1097.72 426.14C1099.04 427.34 1101.2 427.94 1104.2 427.94H1114.46ZM1148.46 347.66C1142.22 347.66 1137.18 345.98 1133.34 342.62C1129.62 339.14 1127.76 334.82 1127.76 329.66C1127.76 324.38 1129.62 320 1133.34 316.52C1137.18 313.04 1142.22 311.3 1148.46 311.3C1154.58 311.3 1159.5 313.04 1163.22 316.52C1167.06 320 1168.98 324.38 1168.98 329.66C1168.98 334.82 1167.06 339.14 1163.22 342.62C1159.5 345.98 1154.58 347.66 1148.46 347.66ZM1165.92 357.02V458H1130.64V357.02H1165.92ZM1232.99 459.26C1222.91 459.26 1213.85 457.16 1205.81 452.96C1197.89 448.76 1191.65 442.76 1187.09 434.96C1182.53 427.16 1180.25 417.98 1180.25 407.42C1180.25 396.98 1182.53 387.86 1187.09 380.06C1191.77 372.26 1198.07 366.26 1205.99 362.06C1214.03 357.86 1223.09 355.76 1233.17 355.76C1243.25 355.76 1252.25 357.86 1260.17 362.06C1268.21 366.26 1274.51 372.26 1279.07 380.06C1283.75 387.86 1286.09 396.98 1286.09 407.42C1286.09 417.86 1283.75 427.04 1279.07 434.96C1274.51 442.76 1268.21 448.76 1260.17 452.96C1252.13 457.16 1243.07 459.26 1232.99 459.26ZM1232.99 428.66C1237.91 428.66 1241.99 426.86 1245.23 423.26C1248.59 419.54 1250.27 414.26 1250.27 407.42C1250.27 400.58 1248.59 395.36 1245.23 391.76C1241.99 388.16 1237.97 386.36 1233.17 386.36C1228.37 386.36 1224.35 388.16 1221.11 391.76C1217.87 395.36 1216.25 400.58 1216.25 407.42C1216.25 414.38 1217.81 419.66 1220.93 423.26C1224.05 426.86 1228.07 428.66 1232.99 428.66ZM1366.5 356.12C1378.14 356.12 1387.38 360.02 1394.22 367.82C1401.06 375.5 1404.48 385.94 1404.48 399.14V458H1369.2V403.82C1369.2 398.06 1367.7 393.56 1364.7 390.32C1361.7 386.96 1357.68 385.28 1352.64 385.28C1347.36 385.28 1343.22 386.96 1340.22 390.32C1337.22 393.56 1335.72 398.06 1335.72 403.82V458H1300.44V357.02H1335.72V371.42C1338.84 366.86 1343.04 363.2 1348.32 360.44C1353.6 357.56 1359.66 356.12 1366.5 356.12Z" fill="#2D2323"/>
</svg>
