<svg width="348" height="348" viewBox="0 0 348 348" fill="none" xmlns="http://www.w3.org/2000/svg">
<rect width="348" height="348" rx="72" fill="#FFBB00"/>
<path fill-rule="evenodd" clip-rule="evenodd" d="M252.614 56.19C263.659 52.7915 276.029 52.0344 285.792 56.916C288.082 58.061 289.939 59.9179 291.084 62.208C295.966 71.9712 295.209 84.3412 291.81 95.3863C288.278 106.865 281.343 118.892 271.118 129.117L234.28 165.955L254.192 256.663L254.237 256.879C256.481 268.099 251.461 277.133 243.817 282.867C242.986 283.49 242.076 284.001 241.112 284.387L235.195 286.754C225.356 290.689 213.34 289.169 205.95 279.317C205.808 279.128 205.672 278.935 205.542 278.738L170.675 225.939L150.333 239.5V268.667C150.333 271.805 149.087 274.815 146.868 277.034L135.034 288.867C132.527 291.374 129.029 292.625 125.501 292.276C121.973 291.926 118.787 290.014 116.821 287.064L94.4669 253.533L60.9361 231.179C57.9864 229.213 56.0737 226.027 55.7243 222.499C55.375 218.971 56.6258 215.473 59.1327 212.966L70.966 201.133C73.1852 198.913 76.195 197.667 79.3334 197.667H108.5L122.061 177.325L69.2625 142.458C69.0655 142.328 68.8723 142.192 68.6834 142.05C58.8308 134.661 57.3109 122.644 61.2464 112.805C61.4808 112.219 61.7617 111.653 62.0864 111.112L65.439 105.524C70.4394 96.0209 80.5035 91.6397 91.1208 93.7632L91.3372 93.8086L182.045 113.72L218.883 76.8826C229.108 66.6571 241.135 59.7218 252.614 56.19ZM259.574 78.8101C251.823 81.1949 243.142 86.0929 235.618 93.6175L194.201 135.034C191.348 137.887 187.237 139.09 183.296 138.225L86.4032 116.956C86.3235 116.941 86.2516 116.93 86.1871 116.922C86.1048 117.073 86.0193 117.223 85.9304 117.372L82.9985 122.258C82.89 122.672 82.8793 122.948 82.8855 123.093L145.021 164.126C147.647 165.86 149.475 168.569 150.099 171.654C150.723 174.739 150.092 177.945 148.346 180.564L124.679 216.064C122.485 219.356 118.79 221.333 114.833 221.333H88.8329L109.564 235.154C110.864 236.021 111.979 237.136 112.846 238.436L126.667 259.167V233.167C126.667 229.21 128.644 225.515 131.936 223.321L167.436 199.654C170.055 197.908 173.261 197.278 176.346 197.902C179.431 198.526 182.14 200.353 183.875 202.979L224.907 265.115C225.119 265.124 225.613 265.097 226.405 264.78L230.549 263.122C230.91 262.743 231.027 262.504 231.053 262.445C231.075 262.394 231.088 262.35 231.096 262.271C231.104 262.19 231.114 261.977 231.045 261.597L209.775 164.704C208.91 160.763 210.113 156.652 212.966 153.799L254.383 112.383C261.907 104.858 266.805 96.1769 269.19 88.4263C270.645 83.6982 271.006 79.906 270.853 77.1472C268.094 76.9936 264.302 77.3553 259.574 78.8101Z" fill="#FBF9F5"/>
</svg>
